<?xml version="1.0" encoding="UTF-8" standalone="no"?>
<svg
   width="128"
   height="128"
   viewBox="0 0 128 128"
   version="1.1"
   id="svg1"
   sodipodi:docname="50ohm.svg"
   xml:space="preserve"
   inkscape:version="1.4.2 (ebf0e940, 2025-05-08)"
   xmlns:inkscape="http://www.inkscape.org/namespaces/inkscape"
   xmlns:sodipodi="http://sodipodi.sourceforge.net/DTD/sodipodi-0.dtd"
   xmlns="http://www.w3.org/2000/svg"
   xmlns:svg="http://www.w3.org/2000/svg"><defs
     id="defs1" /><sodipodi:namedview
     id="namedview1"
     pagecolor="#ffffff"
     bordercolor="#000000"
     borderopacity="0.25"
     inkscape:showpageshadow="2"
     inkscape:pageopacity="0.0"
     inkscape:pagecheckerboard="0"
     inkscape:deskcolor="#d1d1d1"
     inkscape:zoom="0.71240064"
     inkscape:cx="186.6927"
     inkscape:cy="56.850033"
     inkscape:window-width="1456"
     inkscape:window-height="762"
     inkscape:window-x="347"
     inkscape:window-y="445"
     inkscape:window-maximized="0"
     inkscape:current-layer="svg1" /><g
     id="g1"
     transform="matrix(0.67544074,0,0,0.67544074,-132.60977,172.33895)"><path
       id="path17"
       style="font-weight:bold;font-size:42.3333px;line-height:1;font-family:Futura;-inkscape-font-specification:'Futura Bold';fill:#b2e6fa;fill-opacity:1;stroke-width:3.77953"
       d="m 295.70663,-222.31731 v 6.07034 c 29.23778,1.93928 52.27037,22.7065 55.52148,49.87888 h 6.41409 c -2.60655,-29.01781 -27.62011,-53.85347 -61.93557,-55.94922 z m 0,12.31057 v 5.39062 c 22.23772,1.78549 39.80103,16.73005 42.29884,38.24803 h 6.83006 c -2.77409,-24.62438 -23.26412,-41.84364 -49.1289,-43.63865 z m 0,10.78318 v 6.4707 c 14.74798,1.85428 26.07518,12.6344 28.64844,26.38477 h 6.40822 c -2.55103,-17.43243 -16.76129,-30.92655 -35.05666,-32.85547 z"
       sodipodi:nodetypes="ccccccccccccccc" /><path
       id="text4"
       style="font-weight:bold;font-size:42.3333px;line-height:1;font-family:Futura;-inkscape-font-specification:'Futura Bold';fill:#00adef;stroke-width:3.77953"
       d="m 291.00353,-222.47744 c -9.59995,0 -18.45391,1.65426 -26.56054,4.96093 -8.10667,3.19997 -15.14582,7.62595 -21.11913,13.27929 -5.97332,5.54665 -10.66678,12.05288 -14.08011,19.51952 -3.30663,7.35999 -4.96093,15.14801 -4.96093,23.36134 0,2.66665 0.32096,5.75928 0.96095,9.27931 0.74664,3.41329 1.86603,6.93388 3.35935,10.56053 1.49333,3.51998 3.41311,6.93358 5.75978,10.24025 2.34667,3.30663 5.17383,6.13183 8.48046,8.4785 h -20.95899 v 24.480447 h 60 v -26.878897 c -3.62668,-1.06666 -6.93324,-2.72092 -9.9199,-4.96093 -2.98666,-2.34667 -5.60179,-5.06684 -7.8418,-8.16016 -2.13335,-3.19997 -3.83913,-6.66704 -5.11914,-10.40039 -1.17332,-3.84 -1.75975,-7.67954 -1.75975,-11.51954 0,-4.58665 0.85387,-8.85215 2.56052,-12.79881 1.81334,-3.94665 4.21258,-7.41373 7.19924,-10.40039 3.09332,-2.98665 6.66735,-5.33435 10.72071,-7.04103 4.15997,-1.70665 8.63943,-2.55859 13.43942,-2.55859 0.0151,0 0.0302,0.002 0.0431,0.002 v -29.43946 c -0.0684,-1.9e-4 -0.13455,-0.004 -0.20296,-0.004 z m 33.83006,60.35935 c 0.034,0.62589 0.09,1.24256 0.09,1.88085 0,3.84 -0.63992,7.67954 -1.91993,11.51954 -1.17331,3.73335 -2.87913,7.20042 -5.11914,10.40039 -2.13332,3.09332 -4.74849,5.81349 -7.84177,8.16016 -2.98669,2.24001 -6.29329,3.89427 -9.91993,4.96093 v 26.878897 h 60.16014 v -24.480447 h -20.79882 c 3.30667,-2.34667 6.13187,-5.17187 8.4785,-8.4785 2.34667,-3.30667 4.21489,-6.72027 5.60156,-10.24025 1.49333,-3.62665 2.55924,-7.14724 3.19922,-10.56053 0.74669,-3.52003 1.12112,-6.61266 1.12112,-9.27931 0,-0.2555 -0.0151,-0.50702 -0.0189,-0.76173 z" /></g></svg>
